<svg xmlns="http://www.w3.org/2000/svg"  viewBox="0 0 50 50" width="50px" height="50px"><path d="M 13.148438 4 C 8.1071126 4 4 8.1071126 4 13.148438 L 4 36.851562 C 4 41.892888 8.1071126 46 13.148438 46 L 36.851562 46 C 41.892888 46 46 41.892888 46 36.851562 L 46 13.148438 C 46 8.1071126 41.892888 4 36.851562 4 L 13.148438 4 z M 13.148438 6 L 36.851562 6 C 40.812238 6 44 9.1877614 44 13.148438 L 44 36.851562 C 44 40.812238 40.812238 44 36.851562 44 L 13.148438 44 C 9.1877614 44 6 40.812238 6 36.851562 L 6 13.148438 C 6 9.1877614 9.1877614 6 13.148438 6 z M 23.681641 13.644531 C 23.62801 13.642906 23.564937 13.655141 23.492188 13.681641 C 22.910187 13.893641 21.005031 14.421047 20.582031 15.373047 C 20.582031 15.373047 19.373953 18.593906 18.001953 22.253906 C 16.660953 22.505906 15.247594 22.798938 13.933594 23.085938 C 15.376594 19.285937 16.713594 15.776844 16.933594 15.214844 C 17.409594 13.997844 16.404531 13.574813 15.769531 14.632812 C 15.520531 15.047812 13.923313 19.196312 12.320312 23.445312 C 10.671313 23.824313 9.3635781 24.1555 8.8925781 24.3125 C 8.8925781 24.3125 8.1529063 25.001359 8.6289062 25.318359 C 9.0869063 25.623359 9.2666094 25.792297 10.974609 27.029297 C 9.7946094 30.187297 8.8471094 32.767281 8.7871094 32.988281 C 8.6281094 33.570281 9.3686406 35.262422 10.056641 33.357422 C 10.326641 32.610422 11.368453 29.846453 12.564453 26.689453 C 13.764453 26.341453 15.322797 25.986641 16.716797 25.681641 C 15.418797 29.146641 14.263859 32.239187 14.130859 32.617188 C 13.813859 33.516188 14.605234 33.992219 15.240234 34.574219 C 15.875234 35.156219 16.034719 35.686906 16.511719 34.628906 C 16.747719 34.104906 18.438047 29.496859 20.123047 24.880859 C 21.388047 24.388859 22.367688 23.111828 22.804688 22.673828 C 23.280687 22.197828 23.493484 21.5625 22.646484 21.5625 C 22.264484 21.5875 21.797297 21.637031 21.279297 21.707031 C 22.536297 18.258031 23.579125 15.385641 23.703125 15.056641 C 23.9805 14.316391 24.057057 13.655906 23.681641 13.644531 z M 40.277344 13.863281 C 40.210457 13.862906 40.134703 13.872828 40.048828 13.892578 C 39.360828 14.051578 37.986562 14.368578 37.351562 15.267578 C 36.716563 16.166578 32.961938 24.418891 31.585938 27.962891 C 31.585938 26.428891 32.855938 15.584219 32.960938 14.949219 C 33.066938 14.314219 32.801969 13.837094 32.167969 13.996094 C 31.532969 14.155094 29.891547 14.419719 29.310547 15.636719 C 28.728547 16.853719 24.127547 31.40075 23.810547 33.09375 C 23.493547 34.78675 24.921547 34.36375 25.185547 33.09375 C 25.450547 31.82375 29.205078 20.027344 29.205078 20.027344 C 29.205078 20.027344 28.728781 28.702859 28.675781 30.130859 C 28.622781 31.558859 29.786516 32.562859 30.103516 32.880859 C 30.420516 33.197859 30.686906 33.622187 31.003906 32.617188 C 31.320906 31.612188 36.769531 19.128906 36.769531 19.128906 C 36.769531 19.128906 34.389469 31.400187 34.230469 32.617188 C 34.071469 33.834187 36.398109 36.477156 36.662109 34.785156 C 36.926109 33.092156 40.472859 15.320016 40.630859 14.791016 C 40.769984 14.329016 40.745551 13.865906 40.277344 13.863281 z M 21.869141 25.783203 C 21.489693 25.777596 21.086484 26.018156 20.818359 26.613281 C 20.712359 26.983281 20.800172 27.805453 20.951172 28.439453 C 18.967172 29.761453 19.628344 31.851297 20.527344 31.904297 C 21.426344 31.957297 22.035156 31.269531 22.035156 31.269531 C 22.035156 31.269531 22.406344 32.061484 22.777344 31.771484 C 23.147344 31.480484 22.539062 30.714844 22.539062 30.714844 C 22.539062 30.714844 23.174375 30.10625 23.359375 29.65625 C 23.545375 29.20625 23.121875 28.8095 22.671875 29.3125 C 22.221875 29.8155 22.169922 29.550781 22.169922 29.550781 L 21.957031 28.597656 C 21.957031 28.597656 22.706469 27.999859 22.855469 27.380859 C 23.070469 26.488359 22.501553 25.792549 21.869141 25.783203 z M 21.878906 26.560547 C 22.565906 26.613547 21.905969 27.407406 21.667969 27.566406 C 21.667969 27.566406 21.190906 26.507547 21.878906 26.560547 z M 21.349609 29.337891 C 21.349609 29.337891 21.401203 29.919328 21.533203 30.236328 C 20.978203 30.818328 20.265609 30.289891 21.349609 29.337891 z"/></svg>